# xmcd CD database file
#
# Track frame offsets:
#	150
#	12445
#	26897
#	38487
#	51285
#	63592
#	76397
#	92855
#	106807
#	120967
#	132112
#	147552
#	159940
#	172075
#	182820
#	195385
#	207410
#	220167
#	234970
#	249972
#
# Disc length: 3510 seconds
#
# Revision: 3
# Processed by: cddbd v1.5.1PL0 Copyright (c) Steve Scherf et al.
# Submitted via: CDex 1.40Release
#
DISCID=100db414
DTITLE=Slim Dusty - Australia Is His Name CD 1
DYEAR=1900
DGENRE=Country
TTITLE0=Travellin' Country Band
TTITLE1=When the Rain Tumbles Down in  July
TTITLE2=Road To Gundagi-Back To Yarrawonga-Never Never-Old Bush Shanty
TTITLE3=Ironbark Jim
TTITLE4=Old Bush Barbecue
TTITLE5=Spirit of Australia
TTITLE6=Send'er Down Hughie
TTITLE7=Lights On the Hill
TTITLE8=Along the Road of Song
TTITLE9=Australia Is His Name
TTITLE10=Letter From Down Under
TTITLE11=Old Woolshed Do
TTITLE12=Isa Rodeo
TTITLE13=Cobb and Co. Twitch
TTITLE14=Answer to the Pub With No Beer
TTITLE15=Sundown
TTITLE16=Angel of Goulborn Hill
TTITLE17=Waltzing Matilda
TTITLE18=Cattle Camp Reverie
TTITLE19=Darwin (Big Heart of the North)
EXTD=ID3G: 2
EXTT0=
EXTT1=
EXTT2=Along the Road to Gundagai\nI'm Going Back to Yarrawonga\nThe Man from Snowy River\nThat Old Bush Shanty of Mine\n
EXTT3=
EXTT4=
EXTT5=
EXTT6=
EXTT7=
EXTT8=
EXTT9=
EXTT10=
EXTT11=
EXTT12=
EXTT13=
EXTT14=
EXTT15=
EXTT16=
EXTT17=
EXTT18=
EXTT19=
PLAYORDER=
